mtllib material.mtl
o Default
v 0.125 -1 0 1 1 1
v 0.125 0 0 1 1 1
v 0.25 0 -0.125 1 1 1
v 0.25 -1 -0.125 1 1 1
v -0.25 -1 -0.125 1 1 1
v -0.125 0 0 1 1 1
v -0.25 0 -0.125 1 1 1
v -0.125 -1 0 1 1 1
v -0.125 -1 -0.5 1 1 1
v -0.25 0 -0.375 1 1 1
v -0.125 0 -0.5 1 1 1
v -0.25 -1 -0.375 1 1 1
v 0.25 -1 -0.375 1 1 1
v 0.125 0 -0.5 1 1 1
v 0.25 0 -0.375 1 1 1
v 0.125 -1 -0.5 1 1 1
v -0.125 -1.25 -0.125 1 1 1
v 0.125 -1.25 -0.1875 1 1 1
v -0.125 -1.25 -0.1875 1 1 1
v 0.125 -1.25 -0.125 1 1 1
v -0.125 -0.875 -0.1875 1 1 1
v 0.125 -0.875 -0.125 1 1 1
v -0.125 -0.875 -0.125 1 1 1
v 0.125 -0.875 -0.1875 1 1 1
v -0.0625 -1.25 -0.1875 1 1 1
v 0.0625 -0.875 -0.1875 1 1 1
v -0.0625 -0.875 -0.1875 1 1 1
v 0.0625 -1.25 -0.1875 1 1 1
v -0.125 -1 0 1 1 1
v 0.125 0 0 1 1 1
v -0.125 0 0 1 1 1
v 0.125 -1 0 1 1 1
v -0.125 -2.25 -0.125 1 1 1
v 0.125 -1.25 -0.125 1 1 1
v -0.125 -1.25 -0.125 1 1 1
v 0.125 -2.25 -0.125 1 1 1
v -0.125 -3.25 -0.125 1 1 1
v 0.125 -2.25 -0.125 1 1 1
v -0.125 -2.25 -0.125 1 1 1
v 0.125 -3.25 -0.125 1 1 1
v -0.125 -1.25 -0.375 1 1 1
v -0.0625 -1.25 -0.125 1 1 1
v -0.0625 -1.25 -0.375 1 1 1
v -0.125 -1.25 -0.125 1 1 1
v -0.0625 -0.875 -0.375 1 1 1
v -0.125 -0.875 -0.125 1 1 1
v -0.125 -0.875 -0.375 1 1 1
v -0.0625 -0.875 -0.125 1 1 1
v -0.0625 -1.25 -0.3125 1 1 1
v -0.0625 -0.875 -0.1875 1 1 1
v -0.0625 -0.875 -0.3125 1 1 1
v -0.0625 -1.25 -0.1875 1 1 1
v -0.25 -1 -0.375 1 1 1
v -0.25 0 -0.125 1 1 1
v -0.25 0 -0.375 1 1 1
v -0.25 -1 -0.125 1 1 1
v -0.125 -2.25 -0.375 1 1 1
v -0.125 -1.25 -0.125 1 1 1
v -0.125 -1.25 -0.375 1 1 1
v -0.125 -2.25 -0.125 1 1 1
v -0.125 -3.25 -0.375 1 1 1
v -0.125 -2.25 -0.125 1 1 1
v -0.125 -2.25 -0.375 1 1 1
v -0.125 -3.25 -0.125 1 1 1
v 0.125 -1.25 -0.375 1 1 1
v -0.125 -1.25 -0.3125 1 1 1
v 0.125 -1.25 -0.3125 1 1 1
v -0.125 -1.25 -0.375 1 1 1
v 0.125 -0.875 -0.3125 1 1 1
v -0.125 -0.875 -0.375 1 1 1
v 0.125 -0.875 -0.375 1 1 1
v -0.125 -0.875 -0.3125 1 1 1
v 0.0625 -1.25 -0.3125 1 1 1
v -0.0625 -0.875 -0.3125 1 1 1
v 0.0625 -0.875 -0.3125 1 1 1
v -0.0625 -1.25 -0.3125 1 1 1
v 0.125 -1 -0.5 1 1 1
v -0.125 0 -0.5 1 1 1
v 0.125 0 -0.5 1 1 1
v -0.125 -1 -0.5 1 1 1
v 0.125 -2.25 -0.375 1 1 1
v -0.125 -1.25 -0.375 1 1 1
v 0.125 -1.25 -0.375 1 1 1
v -0.125 -2.25 -0.375 1 1 1
v 0.125 -3.25 -0.375 1 1 1
v -0.125 -2.25 -0.375 1 1 1
v 0.125 -2.25 -0.375 1 1 1
v -0.125 -3.25 -0.375 1 1 1
v 0.125 -1.25 -0.125 1 1 1
v 0.0625 -1.25 -0.375 1 1 1
v 0.0625 -1.25 -0.125 1 1 1
v 0.125 -1.25 -0.375 1 1 1
v 0.0625 -0.875 -0.125 1 1 1
v 0.125 -0.875 -0.375 1 1 1
v 0.125 -0.875 -0.125 1 1 1
v 0.0625 -0.875 -0.375 1 1 1
v 0.0625 -1.25 -0.1875 1 1 1
v 0.0625 -0.875 -0.3125 1 1 1
v 0.0625 -0.875 -0.1875 1 1 1
v 0.0625 -1.25 -0.3125 1 1 1
v 0.25 -1 -0.125 1 1 1
v 0.25 0 -0.375 1 1 1
v 0.25 0 -0.125 1 1 1
v 0.25 -1 -0.375 1 1 1
v 0.125 -2.25 -0.125 1 1 1
v 0.125 -1.25 -0.375 1 1 1
v 0.125 -1.25 -0.125 1 1 1
v 0.125 -2.25 -0.375 1 1 1
v 0.125 -3.25 -0.125 1 1 1
v 0.125 -2.25 -0.375 1 1 1
v 0.125 -2.25 -0.125 1 1 1
v 0.125 -3.25 -0.375 1 1 1
vt 0.0625 0.0625
vt 0.125 0.125
vt 0.0625 0.125
vt 0.0625 0.0625
vt 0.125 0.0625
vt 0.125 0.125
vt 0.0625 0.0625
vt 0.125 0.125
vt 0.0625 0.125
vt 0.0625 0.0625
vt 0.125 0.0625
vt 0.125 0.125
vt 0.0625 0.0625
vt 0.125 0.125
vt 0.0625 0.125
vt 0.0625 0.0625
vt 0.125 0.0625
vt 0.125 0.125
vt 0.0625 0.0625
vt 0.125 0.125
vt 0.0625 0.125
vt 0.0625 0.0625
vt 0.125 0.0625
vt 0.125 0.125
vt 0.0625 0.0625
vt 0.125 0.125
vt 0.0625 0.125
vt 0.0625 0.0625
vt 0.125 0.0625
vt 0.125 0.125
vt 0.0625 0.0625
vt 0.125 0.125
vt 0.0625 0.125
vt 0.0625 0.0625
vt 0.125 0.0625
vt 0.125 0.125
vt 0.0625 0.0625
vt 0.125 0.125
vt 0.0625 0.125
vt 0.0625 0.0625
vt 0.125 0.0625
vt 0.125 0.125
vt 0.0625 0.0625
vt 0.125 0.125
vt 0.0625 0.125
vt 0.0625 0.0625
vt 0.125 0.0625
vt 0.125 0.125
vt 0.0625 0.0625
vt 0.125 0.125
vt 0.0625 0.125
vt 0.0625 0.0625
vt 0.125 0.0625
vt 0.125 0.125
vt 0.0625 0.0625
vt 0.125 0.125
vt 0.0625 0.125
vt 0.0625 0.0625
vt 0.125 0.0625
vt 0.125 0.125
vt 0.0625 0.0625
vt 0.125 0.125
vt 0.0625 0.125
vt 0.0625 0.0625
vt 0.125 0.0625
vt 0.125 0.125
vt 0.0625 0.0625
vt 0.125 0.125
vt 0.0625 0.125
vt 0.0625 0.0625
vt 0.125 0.0625
vt 0.125 0.125
vt 0.0625 0.0625
vt 0.125 0.125
vt 0.0625 0.125
vt 0.0625 0.0625
vt 0.125 0.0625
vt 0.125 0.125
vt 0.0625 0.0625
vt 0.125 0.125
vt 0.0625 0.125
vt 0.0625 0.0625
vt 0.125 0.0625
vt 0.125 0.125
vt 0.0625 0.0625
vt 0.125 0.125
vt 0.0625 0.125
vt 0.0625 0.0625
vt 0.125 0.0625
vt 0.125 0.125
vt 0.0625 0.0625
vt 0.125 0.125
vt 0.0625 0.125
vt 0.0625 0.0625
vt 0.125 0.0625
vt 0.125 0.125
vt 0.0625 0.0625
vt 0.125 0.125
vt 0.0625 0.125
vt 0.0625 0.0625
vt 0.125 0.0625
vt 0.125 0.125
vt 0.0625 0.0625
vt 0.125 0.125
vt 0.0625 0.125
vt 0.0625 0.0625
vt 0.125 0.0625
vt 0.125 0.125
vt 0.0625 0.0625
vt 0.125 0.125
vt 0.0625 0.125
vt 0.0625 0.0625
vt 0.125 0.0625
vt 0.125 0.125
vt 0.0625 0.0625
vt 0.125 0.125
vt 0.0625 0.125
vt 0.0625 0.0625
vt 0.125 0.0625
vt 0.125 0.125
vt 0.0625 0.0625
vt 0.125 0.125
vt 0.0625 0.125
vt 0.0625 0.0625
vt 0.125 0.0625
vt 0.125 0.125
vt 0.0625 0.0625
vt 0.125 0.125
vt 0.0625 0.125
vt 0.0625 0.0625
vt 0.125 0.0625
vt 0.125 0.125
vt 0.0625 0.0625
vt 0.125 0.125
vt 0.0625 0.125
vt 0.0625 0.0625
vt 0.125 0.0625
vt 0.125 0.125
vt 0.0625 0.0625
vt 0.125 0.125
vt 0.0625 0.125
vt 0.0625 0.0625
vt 0.125 0.0625
vt 0.125 0.125
vt 0.0625 0.0625
vt 0.125 0.125
vt 0.0625 0.125
vt 0.0625 0.0625
vt 0.125 0.0625
vt 0.125 0.125
vt 0.0625 0.0625
vt 0.125 0.125
vt 0.0625 0.125
vt 0.0625 0.0625
vt 0.125 0.0625
vt 0.125 0.125
vt 0.0625 0.0625
vt 0.125 0.125
vt 0.0625 0.125
vt 0.0625 0.0625
vt 0.125 0.0625
vt 0.125 0.125
vt 0.0625 0.0625
vt 0.125 0.125
vt 0.0625 0.125
vt 0.0625 0.0625
vt 0.125 0.0625
vt 0.125 0.125
vn 0.7071067811865475 0 0.7071067811865475
vn 0.7071067811865475 0 0.7071067811865475
vn 0.7071067811865475 0 0.7071067811865475
vn 0.7071067811865475 0 0.7071067811865475
vn 0.7071067811865475 0 0.7071067811865475
vn 0.7071067811865475 0 0.7071067811865475
vn -0.7071067811865475 0 0.7071067811865475
vn -0.7071067811865475 0 0.7071067811865475
vn -0.7071067811865475 0 0.7071067811865475
vn -0.7071067811865475 0 0.7071067811865475
vn -0.7071067811865475 0 0.7071067811865475
vn -0.7071067811865475 0 0.7071067811865475
vn -0.7071067811865475 0 -0.7071067811865475
vn -0.7071067811865475 0 -0.7071067811865475
vn -0.7071067811865475 0 -0.7071067811865475
vn -0.7071067811865475 0 -0.7071067811865475
vn -0.7071067811865475 0 -0.7071067811865475
vn -0.7071067811865475 0 -0.7071067811865475
vn 0.7071067811865475 0 -0.7071067811865475
vn 0.7071067811865475 0 -0.7071067811865475
vn 0.7071067811865475 0 -0.7071067811865475
vn 0.7071067811865475 0 -0.7071067811865475
vn 0.7071067811865475 0 -0.7071067811865475
vn 0.7071067811865475 0 -0.7071067811865475
vn 0 1 0
vn 0 1 0
vn 0 1 0
vn 0 1 0
vn 0 1 0
vn 0 1 0
vn 0 -1 0
vn 0 -1 0
vn 0 -1 0
vn 0 -1 0
vn 0 -1 0
vn 0 -1 0
vn 0 0 1
vn 0 0 1
vn 0 0 1
vn 0 0 1
vn 0 0 1
vn 0 0 1
vn 0 0 1
vn 0 0 1
vn 0 0 1
vn 0 0 1
vn 0 0 1
vn 0 0 1
vn 0 0 1
vn 0 0 1
vn 0 0 1
vn 0 0 1
vn 0 0 1
vn 0 0 1
vn 0 0 1
vn 0 0 1
vn 0 0 1
vn 0 0 1
vn 0 0 1
vn 0 0 1
vn 0 1 0
vn 0 1 0
vn 0 1 0
vn 0 1 0
vn 0 1 0
vn 0 1 0
vn 0 -1 0
vn 0 -1 0
vn 0 -1 0
vn 0 -1 0
vn 0 -1 0
vn 0 -1 0
vn -1 0 0
vn -1 0 0
vn -1 0 0
vn -1 0 0
vn -1 0 0
vn -1 0 0
vn -1 0 0
vn -1 0 0
vn -1 0 0
vn -1 0 0
vn -1 0 0
vn -1 0 0
vn -1 0 0
vn -1 0 0
vn -1 0 0
vn -1 0 0
vn -1 0 0
vn -1 0 0
vn -1 0 0
vn -1 0 0
vn -1 0 0
vn -1 0 0
vn -1 0 0
vn -1 0 0
vn 0 1 0
vn 0 1 0
vn 0 1 0
vn 0 1 0
vn 0 1 0
vn 0 1 0
vn 0 -1 0
vn 0 -1 0
vn 0 -1 0
vn 0 -1 0
vn 0 -1 0
vn 0 -1 0
vn 0 0 -1
vn 0 0 -1
vn 0 0 -1
vn 0 0 -1
vn 0 0 -1
vn 0 0 -1
vn 0 0 -1
vn 0 0 -1
vn 0 0 -1
vn 0 0 -1
vn 0 0 -1
vn 0 0 -1
vn 0 0 -1
vn 0 0 -1
vn 0 0 -1
vn 0 0 -1
vn 0 0 -1
vn 0 0 -1
vn 0 0 -1
vn 0 0 -1
vn 0 0 -1
vn 0 0 -1
vn 0 0 -1
vn 0 0 -1
vn 0 1 0
vn 0 1 0
vn 0 1 0
vn 0 1 0
vn 0 1 0
vn 0 1 0
vn 0 -1 0
vn 0 -1 0
vn 0 -1 0
vn 0 -1 0
vn 0 -1 0
vn 0 -1 0
vn 1 0 0
vn 1 0 0
vn 1 0 0
vn 1 0 0
vn 1 0 0
vn 1 0 0
vn 1 0 0
vn 1 0 0
vn 1 0 0
vn 1 0 0
vn 1 0 0
vn 1 0 0
vn 1 0 0
vn 1 0 0
vn 1 0 0
vn 1 0 0
vn 1 0 0
vn 1 0 0
vn 1 0 0
vn 1 0 0
vn 1 0 0
vn 1 0 0
vn 1 0 0
vn 1 0 0
g LampPost
usemtl 0
f 1/1/1 4/5/5 3/2/2 2/3/3
f 5/7/7 8/11/11 6/8/8 7/9/9
f 9/13/13 12/17/17 10/14/14 11/15/15
f 13/19/19 16/23/23 14/20/20 15/21/21
f 17/25/25 20/29/29 18/26/26 19/27/27
f 21/31/31 24/35/35 22/32/32 23/33/33
f 25/37/37 28/41/41 26/38/38 27/39/39
f 29/43/43 32/47/47 30/44/44 31/45/45
f 33/49/49 36/53/53 34/50/50 35/51/51
f 37/55/55 40/59/59 38/56/56 39/57/57
f 41/61/61 44/65/65 42/62/62 43/63/63
f 45/67/67 48/71/71 46/68/68 47/69/69
f 49/73/73 52/77/77 50/74/74 51/75/75
f 53/79/79 56/83/83 54/80/80 55/81/81
f 57/85/85 60/89/89 58/86/86 59/87/87
f 61/91/91 64/95/95 62/92/92 63/93/93
f 65/97/97 68/101/101 66/98/98 67/99/99
f 69/103/103 72/107/107 70/104/104 71/105/105
f 73/109/109 76/113/113 74/110/110 75/111/111
f 77/115/115 80/119/119 78/116/116 79/117/117
f 81/121/121 84/125/125 82/122/122 83/123/123
f 85/127/127 88/131/131 86/128/128 87/129/129
f 89/133/133 92/137/137 90/134/134 91/135/135
f 93/139/139 96/143/143 94/140/140 95/141/141
f 97/145/145 100/149/149 98/146/146 99/147/147
f 101/151/151 104/155/155 102/152/152 103/153/153
f 105/157/157 108/161/161 106/158/158 107/159/159
f 109/163/163 112/167/167 110/164/164 111/165/165
