{
    "asset" : {
        "generator" : "Khronos glTF Blender I/O v1.1.46",
        "version" : "2.0"
    },
    "scene" : 0,
    "scenes" : [
        {
            "name" : "Scene",
            "nodes" : [
                0,
                7
            ]
        }
    ],
    "nodes" : [
        {
            "name" : "Camera",
            "rotation" : [
                0.5764323472976685,
                0,
                0,
                0.8171448707580566
            ],
            "translation" : [
                0,
                3.6883091926574707,
                22.885799407958984
            ]
        },
        {
            "mesh" : 0,
            "name" : "Default.001",
            "rotation" : [
                0,
                0,
                0.7071068286895752,
                0.7071068286895752
            ],
            "translation" : [
                3.109999895095825,
                2.0999996662139893,
                -3.0900001525878906
            ]
        },
        {
            "mesh" : 1,
            "name" : "Default.005",
            "rotation" : [
                0,
                0,
                0.7071068286895752,
                0.7071068286895752
            ],
            "translation" : [
                2.809999942779541,
                3.8199996948242188,
                -2.570000648498535
            ]
        },
        {
            "mesh" : 2,
            "name" : "Glass",
            "rotation" : [
                -0.7071068286895752,
                0,
                0,
                0.7071067094802856
            ],
            "scale" : [
                0.14392411708831787,
                0.5746338963508606,
                0.14392411708831787
            ],
            "translation" : [
                0.004999876022338867,
                -0.25,
                0.28507816791534424
            ]
        },
        {
            "children" : [
                3
            ],
            "mesh" : 3,
            "name" : "LampPost",
            "rotation" : [
                0,
                0,
                0.7071068286895752,
                0.7071068286895752
            ],
            "scale" : [
                0.5270966291427612,
                0.5270966291427612,
                0.5270966291427612
            ],
            "translation" : [
                2.5999996662139893,
                1.4823251962661743,
                -1.6698259115219116
            ]
        },
        {
            "mesh" : 4,
            "name" : "Glass.001",
            "rotation" : [
                -0.7071068286895752,
                0,
                0,
                0.7071067094802856
            ],
            "scale" : [
                0.14392411708831787,
                0.5746338963508606,
                0.14392411708831787
            ],
            "translation" : [
                0.00500035285949707,
                -0.25,
                0.28507816791534424
            ]
        },
        {
            "children" : [
                5
            ],
            "mesh" : 5,
            "name" : "LampPost.001",
            "rotation" : [
                0,
                0,
                0.7071068286895752,
                0.7071068286895752
            ],
            "scale" : [
                0.5270966291427612,
                0.5270966291427612,
                0.5270966291427612
            ],
            "translation" : [
                2.5999996662139893,
                4.558943748474121,
                -1.6698263883590698
            ]
        },
        {
            "children" : [
                1,
                2,
                4,
                6
            ],
            "mesh" : 6,
            "name" : "Cube",
            "rotation" : [
                0.5,
                0.4999999701976776,
                -0.5000000596046448,
                0.4999999403953552
            ],
            "translation" : [
                -3,
                0,
                0
            ]
        }
    ],
    "animations" : [
        {
            "channels" : [
                {
                    "sampler" : 0,
                    "target" : {
                        "node" : 0,
                        "path" : "translation"
                    }
                },
                {
                    "sampler" : 1,
                    "target" : {
                        "node" : 0,
                        "path" : "rotation"
                    }
                }
            ],
            "name" : "CameraAction",
            "samplers" : [
                {
                    "input" : 25,
                    "interpolation" : "LINEAR",
                    "output" : 26
                },
                {
                    "input" : 25,
                    "interpolation" : "LINEAR",
                    "output" : 27
                }
            ]
        }
    ],
    "materials" : [
        {
            "doubleSided" : true,
            "emissiveFactor" : [
                0,
                0,
                0
            ],
            "name" : "0.004",
            "pbrMetallicRoughness" : {
                "baseColorTexture" : {
                    "index" : 0,
                    "texCoord" : 0
                },
                "metallicFactor" : 0,
                "roughnessFactor" : 1
            }
        },
        {
            "doubleSided" : true,
            "emissiveFactor" : [
                1,
                0.7838528752326965,
                0.270409494638443
            ],
            "name" : "Glow",
            "pbrMetallicRoughness" : {
                "baseColorFactor" : [
                    0.800000011920929,
                    0.800000011920929,
                    0.800000011920929,
                    1
                ],
                "metallicFactor" : 0,
                "roughnessFactor" : 0.5
            }
        },
        {
            "doubleSided" : true,
            "emissiveFactor" : [
                0,
                0,
                0
            ],
            "name" : "0",
            "pbrMetallicRoughness" : {
                "baseColorTexture" : {
                    "index" : 1,
                    "texCoord" : 0
                },
                "metallicFactor" : 0,
                "roughnessFactor" : 1
            }
        },
        {
            "doubleSided" : true,
            "emissiveFactor" : [
                0,
                0,
                0
            ],
            "name" : "0.002",
            "pbrMetallicRoughness" : {
                "baseColorTexture" : {
                    "index" : 2,
                    "texCoord" : 0
                },
                "metallicFactor" : 0,
                "roughnessFactor" : 0.27727270126342773
            }
        }
    ],
    "meshes" : [
        {
            "name" : "Default.006",
            "primitives" : [
                {
                    "attributes" : {
                        "POSITION" : 0,
                        "NORMAL" : 1,
                        "TEXCOORD_0" : 2
                    },
                    "indices" : 3,
                    "material" : 0
                }
            ]
        },
        {
            "name" : "Default.005",
            "primitives" : [
                {
                    "attributes" : {
                        "POSITION" : 4,
                        "NORMAL" : 5,
                        "TEXCOORD_0" : 6
                    },
                    "indices" : 3,
                    "material" : 0
                }
            ]
        },
        {
            "name" : "Cylinder",
            "primitives" : [
                {
                    "attributes" : {
                        "POSITION" : 7,
                        "NORMAL" : 8,
                        "TEXCOORD_0" : 9
                    },
                    "indices" : 10,
                    "material" : 1
                }
            ]
        },
        {
            "name" : "Default",
            "primitives" : [
                {
                    "attributes" : {
                        "POSITION" : 11,
                        "NORMAL" : 12,
                        "TEXCOORD_0" : 13
                    },
                    "indices" : 14,
                    "material" : 2
                }
            ]
        },
        {
            "name" : "Cylinder.001",
            "primitives" : [
                {
                    "attributes" : {
                        "POSITION" : 15,
                        "NORMAL" : 16,
                        "TEXCOORD_0" : 17
                    },
                    "indices" : 10,
                    "material" : 1
                }
            ]
        },
        {
            "name" : "Default.002",
            "primitives" : [
                {
                    "attributes" : {
                        "POSITION" : 18,
                        "NORMAL" : 19,
                        "TEXCOORD_0" : 20
                    },
                    "indices" : 14,
                    "material" : 2
                }
            ]
        },
        {
            "name" : "Default.001",
            "primitives" : [
                {
                    "attributes" : {
                        "POSITION" : 21,
                        "NORMAL" : 22,
                        "TEXCOORD_0" : 23
                    },
                    "indices" : 24,
                    "material" : 3
                }
            ]
        }
    ],
    "textures" : [
        {
            "sampler" : 0,
            "source" : 0
        },
        {
            "sampler" : 1,
            "source" : 0
        },
        {
            "sampler" : 2,
            "source" : 0
        }
    ],
    "images" : [
        {
            "bufferView" : 4,
            "mimeType" : "image/png",
            "name" : "3dtiles_texture_0"
        }
    ],
    "accessors" : [
        {
            "bufferView" : 0,
            "componentType" : 5126,
            "count" : 72,
            "max" : [
                2,
                0.25,
                3.5
            ],
            "min" : [
                -2,
                -0.25,
                -1
            ],
            "type" : "VEC3"
        },
        {
            "bufferView" : 1,
            "componentType" : 5126,
            "count" : 72,
            "type" : "VEC3"
        },
        {
            "bufferView" : 2,
            "componentType" : 5126,
            "count" : 72,
            "type" : "VEC2"
        },
        {
            "bufferView" : 3,
            "componentType" : 5123,
            "count" : 108,
            "type" : "SCALAR"
        },
        {
            "bufferView" : 5,
            "componentType" : 5126,
            "count" : 72,
            "max" : [
                2,
                0.25,
                3.5
            ],
            "min" : [
                -2,
                -0.25,
                -1
            ],
            "type" : "VEC3"
        },
        {
            "bufferView" : 6,
            "componentType" : 5126,
            "count" : 72,
            "type" : "VEC3"
        },
        {
            "bufferView" : 7,
            "componentType" : 5126,
            "count" : 72,
            "type" : "VEC2"
        },
        {
            "bufferView" : 8,
            "componentType" : 5126,
            "count" : 192,
            "max" : [
                1,
                0.5842112302780151,
                1
            ],
            "min" : [
                -1,
                -1,
                -1
            ],
            "type" : "VEC3"
        },
        {
            "bufferView" : 9,
            "componentType" : 5126,
            "count" : 192,
            "type" : "VEC3"
        },
        {
            "bufferView" : 10,
            "componentType" : 5126,
            "count" : 192,
            "type" : "VEC2"
        },
        {
            "bufferView" : 11,
            "componentType" : 5123,
            "count" : 372,
            "type" : "SCALAR"
        },
        {
            "bufferView" : 12,
            "componentType" : 5126,
            "count" : 247,
            "max" : [
                0.25,
                0,
                3.25
            ],
            "min" : [
                -0.25,
                -0.5,
                -0.13997891545295715
            ],
            "type" : "VEC3"
        },
        {
            "bufferView" : 13,
            "componentType" : 5126,
            "count" : 247,
            "type" : "VEC3"
        },
        {
            "bufferView" : 14,
            "componentType" : 5126,
            "count" : 247,
            "type" : "VEC2"
        },
        {
            "bufferView" : 15,
            "componentType" : 5123,
            "count" : 798,
            "type" : "SCALAR"
        },
        {
            "bufferView" : 16,
            "componentType" : 5126,
            "count" : 192,
            "max" : [
                1,
                0.5842112302780151,
                1
            ],
            "min" : [
                -1,
                -1,
                -1
            ],
            "type" : "VEC3"
        },
        {
            "bufferView" : 17,
            "componentType" : 5126,
            "count" : 192,
            "type" : "VEC3"
        },
        {
            "bufferView" : 18,
            "componentType" : 5126,
            "count" : 192,
            "type" : "VEC2"
        },
        {
            "bufferView" : 19,
            "componentType" : 5126,
            "count" : 247,
            "max" : [
                0.25,
                0,
                3.25
            ],
            "min" : [
                -0.25,
                -0.5,
                -0.13997891545295715
            ],
            "type" : "VEC3"
        },
        {
            "bufferView" : 20,
            "componentType" : 5126,
            "count" : 247,
            "type" : "VEC3"
        },
        {
            "bufferView" : 21,
            "componentType" : 5126,
            "count" : 247,
            "type" : "VEC2"
        },
        {
            "bufferView" : 22,
            "componentType" : 5126,
            "count" : 384,
            "max" : [
                3,
                6,
                1
            ],
            "min" : [
                -3,
                0,
                0
            ],
            "type" : "VEC3"
        },
        {
            "bufferView" : 23,
            "componentType" : 5126,
            "count" : 384,
            "type" : "VEC3"
        },
        {
            "bufferView" : 24,
            "componentType" : 5126,
            "count" : 384,
            "type" : "VEC2"
        },
        {
            "bufferView" : 25,
            "componentType" : 5123,
            "count" : 576,
            "type" : "SCALAR"
        },
        {
            "bufferView" : 26,
            "componentType" : 5126,
            "count" : 65,
            "max" : [
                2.6666666666666665
            ],
            "min" : [
                0
            ],
            "type" : "SCALAR"
        },
        {
            "bufferView" : 27,
            "componentType" : 5126,
            "count" : 65,
            "type" : "VEC3"
        },
        {
            "bufferView" : 28,
            "componentType" : 5126,
            "count" : 65,
            "type" : "VEC4"
        }
    ],
    "bufferViews" : [
        {
            "buffer" : 0,
            "byteLength" : 864,
            "byteOffset" : 0
        },
        {
            "buffer" : 0,
            "byteLength" : 864,
            "byteOffset" : 864
        },
        {
            "buffer" : 0,
            "byteLength" : 576,
            "byteOffset" : 1728
        },
        {
            "buffer" : 0,
            "byteLength" : 216,
            "byteOffset" : 2304
        },
        {
            "buffer" : 0,
            "byteLength" : 5060,
            "byteOffset" : 2520
        },
        {
            "buffer" : 0,
            "byteLength" : 864,
            "byteOffset" : 7580
        },
        {
            "buffer" : 0,
            "byteLength" : 864,
            "byteOffset" : 8444
        },
        {
            "buffer" : 0,
            "byteLength" : 576,
            "byteOffset" : 9308
        },
        {
            "buffer" : 0,
            "byteLength" : 2304,
            "byteOffset" : 9884
        },
        {
            "buffer" : 0,
            "byteLength" : 2304,
            "byteOffset" : 12188
        },
        {
            "buffer" : 0,
            "byteLength" : 1536,
            "byteOffset" : 14492
        },
        {
            "buffer" : 0,
            "byteLength" : 744,
            "byteOffset" : 16028
        },
        {
            "buffer" : 0,
            "byteLength" : 2964,
            "byteOffset" : 16772
        },
        {
            "buffer" : 0,
            "byteLength" : 2964,
            "byteOffset" : 19736
        },
        {
            "buffer" : 0,
            "byteLength" : 1976,
            "byteOffset" : 22700
        },
        {
            "buffer" : 0,
            "byteLength" : 1596,
            "byteOffset" : 24676
        },
        {
            "buffer" : 0,
            "byteLength" : 2304,
            "byteOffset" : 26272
        },
        {
            "buffer" : 0,
            "byteLength" : 2304,
            "byteOffset" : 28576
        },
        {
            "buffer" : 0,
            "byteLength" : 1536,
            "byteOffset" : 30880
        },
        {
            "buffer" : 0,
            "byteLength" : 2964,
            "byteOffset" : 32416
        },
        {
            "buffer" : 0,
            "byteLength" : 2964,
            "byteOffset" : 35380
        },
        {
            "buffer" : 0,
            "byteLength" : 1976,
            "byteOffset" : 38344
        },
        {
            "buffer" : 0,
            "byteLength" : 4608,
            "byteOffset" : 40320
        },
        {
            "buffer" : 0,
            "byteLength" : 4608,
            "byteOffset" : 44928
        },
        {
            "buffer" : 0,
            "byteLength" : 3072,
            "byteOffset" : 49536
        },
        {
            "buffer" : 0,
            "byteLength" : 1152,
            "byteOffset" : 52608
        },
        {
            "buffer" : 0,
            "byteLength" : 260,
            "byteOffset" : 53760
        },
        {
            "buffer" : 0,
            "byteLength" : 780,
            "byteOffset" : 54020
        },
        {
            "buffer" : 0,
            "byteLength" : 1040,
            "byteOffset" : 54800
        }
    ],
    "samplers" : [
        {
            "magFilter" : 9728,
            "minFilter" : 9984
        },
        {
            "magFilter" : 9728,
            "minFilter" : 9984
        },
        {
            "magFilter" : 9728,
            "minFilter" : 9984
        }
    ],
    "buffers" : [
        {
            "byteLength" : 55840,
            "uri" : "data:application/octet-stream;base64,"
        }
    ]
}
